<svg viewBox="0 0 64 64" xml:space="preserve" xmlns="http://www.w3.org/2000/svg"><path d="M52.52 26.064c-1.612 0-3.149.336-4.544.939L43.179 15.89c-.122-.283-.337-.484-.58-.637a1.29 1.29 0 0 0-.738-.252h-8.897a1.347 1.347 0 0 0 0 2.692h6.823c.331.018 1.022.139 1.319.825l.54 1.247.101.235c.099.291.139.749-.604.749H22.428c-.857 0-1.262-.451-1.434-.732l-.11-.221v-.003l-.552-1.092V18.7l-.006-.011-.101-.2-.012-.002-.225-.405c-.049-.128-.031-.337.65-.337h2.601s1.528.127 1.57-1.274c.021-.722-.487-1.464-1.166-1.464h-9.149s-1.464-.17-1.549 1.369c0 .688.571 1.369 1.379 1.369.295 0 .7-.003 1.091-.007.512.014 1.389.121 1.677.679l.117.219 1.313 2.574c.04.078.083.166.126.246.107.285.188.807-.208 1.483l-2.403 4.082a11.425 11.425 0 0 0-4.559-.947C5.149 26.074.015 31.205.015 37.536S5.15 48.999 11.479 48.999c5.565 0 10.201-3.968 11.243-9.227l5.767.478c.235.02.453-.04.654-.127.254-.043.507-.128.713-.311l13.976-12.276c.192-.164.874-.679 1.151-.039l.446 1.035c-2.659 2.099-4.372 5.343-4.372 8.995 0 6.329 5.131 11.461 11.462 11.461 6.329 0 11.464-5.132 11.464-11.461 0-6.331-5.134-11.463-11.463-11.463zM11.479 46.756c-4.893 0-8.861-3.968-8.861-8.861s3.969-8.859 8.861-8.859c1.073 0 2.098.201 3.051.551l-4.178 7.098a1.43 1.43 0 0 0-.183.633c-.003.022-.015.036-.016.054-.007.091.02.172.03.258.008.054.004.105.018.158.132.559.592 1 1.193 1.05l8.782.727c-.779 4.09-4.374 7.191-8.697 7.191zm3.69-10.333-.006-.002c-1.326-.109-.482-1.621-.436-1.704l2.224-3.78a8.837 8.837 0 0 1 3.32 5.908l-5.102-.422zm10.438.862-2.688-.223a11.42 11.42 0 0 0-4.493-8.629l1.085-1.842c.938-1.593 1.756.001 1.756.001 1.772 3.48 3.65 7.169 4.745 9.331 0 .001.734 1.456-.405 1.362zm17.642-13.012L30.78 35.225v.002c-1.464 1.285-2.177-.104-2.188-.127l-5.297-10.517c-.471-.936.41-1.062.805-1.073h17.926s1.232-.012 1.354.267v.002c.078.182.093.298-.131.494zm9.271 22.472c-4.891 0-8.86-3.968-8.86-8.858a8.822 8.822 0 0 1 2.962-6.599l2.232 5.174c.421.977.871 1.061.978 1.065H51.529c.9 0 .592-.913.473-1.199l-2.862-6.631a8.863 8.863 0 0 1 12.242 8.189c-.001 4.891-3.972 8.859-8.862 8.859z" fill="#ffffff" class="fill-241f20"></path></svg>